<?xml version="1.0" encoding="UTF-8"?><svg xmlns="http://www.w3.org/2000/svg" xmlns:xlink="http://www.w3.org/1999/xlink" height="256.4" preserveAspectRatio="xMidYMid meet" version="1.0" viewBox="84.4 84.4 256.3 256.4" width="256.3" zoomAndPan="magnify"><g id="change1_1"><path d="M338.672 338.793L275.959 320.69 217.448 338.793 157.323 318.426 86.528 338.793 136.637 235.026 177.688 223.066 217.611 235.107 260.119 223.874 293.898 235.026z" fill="#C097C5"/></g><g id="change2_1"><path d="M86.528,340.793c-0.58,0-1.143-0.253-1.529-0.711c-0.509-0.603-0.615-1.448-0.272-2.159l50.108-103.767 c0.246-0.51,0.697-0.892,1.241-1.051l41.052-11.96c0.371-0.108,0.766-0.106,1.137,0.006l39.381,11.877l41.96-11.089 c0.376-0.099,0.771-0.086,1.138,0.034l33.779,11.152c0.543,0.18,0.983,0.582,1.209,1.107l44.668,103.524 c0.183,0.302,0.289,0.656,0.289,1.035c0,1.104-0.896,2-2,2c-0.007-0.001-0.014,0-0.02,0c-0.185,0-0.372-0.025-0.555-0.079 l-62.138-17.937l-57.939,17.926c-0.402,0.125-0.833,0.12-1.233-0.017l-59.532-20.166l-70.193,20.194 C86.898,340.768,86.712,340.793,86.528,340.793z M157.323,316.426c0.217,0,0.434,0.035,0.642,0.106l59.511,20.159l57.892-17.911 c0.373-0.115,0.771-0.119,1.146-0.011l58.644,16.928l-42.74-99.053l-32.362-10.685l-41.934,11.082 c-0.357,0.095-0.734,0.088-1.088-0.019l-39.355-11.87l-39.628,11.545l-47.776,98.937l66.496-19.13 C156.951,316.452,157.137,316.426,157.323,316.426z" fill="#110425"/></g><g id="change3_1"><path d="M149.126 248.018L190.179 236.057 230.101 248.098 272.611 236.864 298.36 245.366 293.898 235.026 260.119 223.874 217.611 235.107 177.688 223.066 136.637 235.026 86.528 338.793 108.32 332.523z" fill="#FFF"/></g><g id="change2_2"><path d="M86.528,340.793c-0.58,0-1.143-0.253-1.529-0.711c-0.509-0.603-0.615-1.448-0.272-2.159l50.108-103.767 c0.246-0.51,0.697-0.892,1.241-1.051l41.052-11.96c0.371-0.108,0.766-0.106,1.137,0.006l39.381,11.877l41.96-11.089 c0.376-0.099,0.771-0.086,1.138,0.034l33.779,11.152c0.543,0.18,0.983,0.582,1.209,1.107l44.668,103.524 c0.183,0.302,0.289,0.656,0.289,1.035c0,1.104-0.896,2-2,2c-0.007-0.001-0.014,0-0.02,0c-0.185,0-0.372-0.025-0.555-0.079 l-62.138-17.937l-57.939,17.926c-0.402,0.125-0.833,0.12-1.233-0.017l-59.532-20.166l-70.193,20.194 C86.898,340.768,86.712,340.793,86.528,340.793z M157.323,316.426c0.217,0,0.434,0.035,0.642,0.106l59.511,20.159l57.892-17.911 c0.373-0.115,0.771-0.119,1.146-0.011l58.644,16.928l-42.74-99.053l-32.362-10.685l-41.934,11.082 c-0.357,0.095-0.734,0.088-1.088-0.019l-39.355-11.87l-39.628,11.545l-47.776,98.937l66.496-19.13 C156.951,316.452,157.137,316.426,157.323,316.426z" fill="#110425"/></g><g id="change3_2"><path d="M157.323 318.426L177.688 223.066" fill="#FFF"/></g><g id="change2_3"><path d="M157.325,320.426c-0.138,0-0.279-0.015-0.419-0.044c-1.081-0.231-1.769-1.293-1.539-2.374l20.365-95.359 c0.23-1.08,1.292-1.769,2.374-1.539c1.081,0.231,1.769,1.293,1.539,2.374l-20.365,95.359 C159.079,319.783,158.249,320.426,157.325,320.426z" fill="#110425"/></g><g id="change3_3"><path d="M275.959 320.69L260.119 223.874" fill="#FFF"/></g><g id="change2_4"><path d="M275.957,322.691c-0.962,0-1.811-0.697-1.971-1.678l-15.84-96.816c-0.178-1.09,0.561-2.118,1.651-2.296 c1.088-0.182,2.119,0.56,2.296,1.651l15.84,96.816c0.178,1.09-0.561,2.118-1.651,2.296 C276.172,322.682,276.064,322.691,275.957,322.691z" fill="#110425"/></g><g id="change2_5"><path d="M217.448,340.793c-1.104,0-2-0.896-2-2V235.512c0-1.104,0.896-2,2-2s2,0.896,2,2v103.281 C219.448,339.897,218.553,340.793,217.448,340.793z" fill="#110425"/></g><g id="change4_1"><path d="M277.851,147.498c0-33.741-27.352-61.094-61.093-61.094c-33.74,0-61.092,27.353-61.092,61.094 c0,11.503,3.185,22.26,8.711,31.447l52.589,75.473l50.278-72.517C273.934,172.102,277.851,160.259,277.851,147.498z" fill="#FDC333"/></g><g id="change3_4"><path d="M179.865,181.943c-5.528-9.188-8.712-19.944-8.712-31.447c0-33.74,27.353-61.094,61.093-61.094 c1.279,0,2.546,0.054,3.805,0.131c-6.066-2.019-12.549-3.129-19.293-3.129c-33.74,0-61.092,27.353-61.092,61.094 c0,11.503,3.185,22.26,8.711,31.447l52.589,75.473l6.684-9.639L179.865,181.943z" fill="#FFF"/></g><g id="change2_6"><path d="M216.965,256.418c-0.654,0-1.267-0.32-1.641-0.856l-52.589-75.473c-0.025-0.037-0.05-0.074-0.073-0.113 c-5.886-9.785-8.997-21.016-8.997-32.478c0-34.79,28.303-63.094,63.092-63.094c34.79,0,63.093,28.304,63.093,63.094 c0,12.747-3.789,25.033-10.956,35.531l-50.287,72.528c-0.373,0.538-0.986,0.859-1.641,0.86 C216.966,256.418,216.966,256.418,216.965,256.418z M166.056,177.857l50.905,73.056l48.639-70.152 c6.704-9.819,10.251-21.325,10.251-33.264c0-32.584-26.509-59.094-59.093-59.094c-32.583,0-59.092,26.509-59.092,59.094 C157.665,158.211,160.566,168.708,166.056,177.857z" fill="#110425"/></g><g id="change3_5"><circle cx="216.757" cy="147.498" fill="#FFF" r="33.939"/></g><g id="change2_7"><path d="M216.757,183.438c-19.817,0-35.939-16.123-35.939-35.939s16.122-35.939,35.939-35.939 s35.939,16.123,35.939,35.939S236.574,183.438,216.757,183.438z M216.757,115.559c-17.611,0-31.939,14.328-31.939,31.939 s14.328,31.939,31.939,31.939s31.939-14.328,31.939-31.939S234.369,115.559,216.757,115.559z" fill="#110425"/></g></svg>